<?xml version="1.0"?>
<svg version="1.1" xmlns="http://www.w3.org/2000/svg" width="210" height="80" style=""><path fill="#1fcecb" d="M33.936,42.376c0,5.58-4.212,8.316-9.504,8.316c-0.288,0-1.908-0.072-2.16-0.108l0,7.992c0,0.54-0.216,0.864-0.9,0.864l-2.88,0c-0.576,0-0.864-0.252-0.864-0.972l0-22.968c0-0.72,0.216-0.972,0.9-0.972l5.22,0c3.816,0,6.624,0.72,8.388,2.736c1.152,1.332,1.8,3.168,1.8,5.112z M29.256,42.556c0-3.276-2.016-4.428-5.112-4.428l-1.872,0l0,8.928c0.288,0,1.908,0.036,2.124,0.036c3.06,0,4.86-1.44,4.86-4.536z M55.734,50.692c0,5.184-3.168,9.18-8.784,9.18c-5.868,0-8.568-3.96-8.568-9.216c0-5.184,3.168-9.144,8.784-9.144c5.868,0,8.568,3.888,8.568,9.18z M51.234,50.692c0-2.952-0.936-5.76-4.104-5.76c-3.204,0-4.248,2.772-4.248,5.652c0,2.952,0.9,5.868,4.104,5.868c3.168,0,4.248-2.808,4.248-5.76z M77.676,50.692c0,5.184-3.168,9.18-8.784,9.18c-5.868,0-8.568-3.96-8.568-9.216c0-5.184,3.168-9.144,8.784-9.144c5.868,0,8.568,3.888,8.568,9.18z M73.176,50.692c0-2.952-0.936-5.76-4.104-5.76c-3.204,0-4.248,2.772-4.248,5.652c0,2.952,0.9,5.868,4.104,5.868c3.168,0,4.248-2.808,4.248-5.76z M93.174,42.124c0,0.108,0,0.216-0.036,0.324l-0.396,2.556c-0.036,0.324-0.216,0.468-0.504,0.468l-0.144,0c-0.288-0.072-0.648-0.108-0.972-0.108c-1.224,0-2.556,0.648-3.456,1.728l0,11.448c0,0.576-0.252,0.9-0.864,0.9l-2.628,0c-0.576,0-0.864-0.288-0.864-0.9l0-11.232l0-4.428c0-0.72,0.36-0.9,0.9-0.9l2.304,0c0.576,0,0.9,0.18,0.9,0.684l0.036,1.152c1.116-1.404,2.34-2.304,4.356-2.304c0.288,0,0.684,0.072,1.008,0.144c0.252,0.072,0.36,0.18,0.36,0.468z M124.242,35.14l0,0.216l-0.252,2.16c-0.072,0.648-0.468,0.756-1.224,0.756l-9.036,0l0,6.516l8.316,0c0.684,0,0.9,0.288,0.9,0.792l0,2.052c0,0.612-0.252,0.864-0.864,0.864l-8.352,0l0,10.044c0,0.648-0.252,0.9-0.864,0.9l-2.808,0c-0.72,0-0.972-0.18-0.972-0.972l0-23.04c0-0.576,0.252-0.9,0.828-0.9l13.572,0c0.54,0,0.756,0.18,0.756,0.612z M146.976,58.756c0,0.432-0.288,0.684-0.72,0.684l-1.728,0c-1.872,0-2.7-0.9-2.952-2.124l-0.072,0c-0.9,1.332-3.24,2.556-5.22,2.556c-5.076,0-7.38-4.176-7.38-8.856c0-6.228,3.744-9.504,7.776-9.504c1.908,0,3.708,0.864,4.608,2.088l0.072-0.972c0.036-0.396,0.324-0.648,0.756-0.648l2.52,0c0.468,0,0.756,0.252,0.756,0.792l0,12.492c0,0.504,0.072,0.864,0.216,1.044c0.108,0.108,0.252,0.144,0.432,0.144l0.288,0c0.432,0,0.648,0.144,0.648,0.612l0,1.692z M141.036,53.86l0-6.948c-0.72-1.044-2.196-1.836-3.564-1.836c-2.196,0-4.068,1.872-4.068,5.652c0,3.024,1.152,5.58,3.816,5.58c1.764,0,3.276-1.332,3.816-2.448z M162.114,42.124c0,0.108,0,0.216-0.036,0.324l-0.396,2.556c-0.036,0.324-0.216,0.468-0.504,0.468l-0.144,0c-0.288-0.072-0.648-0.108-0.972-0.108c-1.224,0-2.556,0.648-3.456,1.728l0,11.448c0,0.576-0.252,0.9-0.864,0.9l-2.628,0c-0.576,0-0.864-0.288-0.864-0.9l0-11.232l0-4.428c0-0.72,0.36-0.9,0.9-0.9l2.304,0c0.576,0,0.9,0.18,0.9,0.684l0.036,1.152c1.116-1.404,2.34-2.304,4.356-2.304c0.288,0,0.684,0.072,1.008,0.144c0.252,0.072,0.36,0.18,0.36,0.468z M192.876,58.54c0,0.648-0.252,0.9-0.864,0.9l-2.52,0c-0.648,0-0.936-0.252-0.936-0.9l0-9.864c0-1.944-0.504-3.42-2.7-3.42c-1.368,0-2.952,0.72-4.068,1.62c0.072,0.324,0.144,5.148,0.144,5.652l0,6.012c0,0.648-0.252,0.9-0.864,0.9l-2.376,0c-0.648,0-0.936-0.252-0.936-0.9l0-9.864c0-1.908-0.396-3.42-2.592-3.42c-1.404,0-2.844,0.792-3.996,1.8l0,11.484c0,0.648-0.288,0.9-0.9,0.9l-2.52,0c-0.648,0-0.936-0.252-0.936-0.9l0-15.732c0-0.576,0.324-0.828,0.864-0.828l2.34,0c0.54,0,0.864,0.18,0.9,0.684l0.036,0.9c1.476-1.296,3.42-2.052,5.292-2.052c2.196,0,3.744,0.972,4.572,2.34c1.62-1.548,3.96-2.34,6.156-2.34c2.628,0,4.284,1.296,5.04,2.7c0.684,1.332,0.864,2.916,0.864,5.22l0,9.108z"/><path fill="#" d=""/></svg>
